<svg width="33.000000" height="16.744934" viewBox="0 0 33 16.7449" fill="none" xmlns="http://www.w3.org/2000/svg" xmlns:xlink="http://www.w3.org/1999/xlink">
	<desc>
			Created with Pixso.
	</desc>
	<defs>
		<filter id="filter_32_21_dd" x="0.000000" y="0.000000" width="33.000000" height="16.744934" filterUnits="userSpaceOnUse" color-interpolation-filters="sRGB">
			<feFlood flood-opacity="0" result="BackgroundImageFix"/>
			<feColorMatrix in="SourceAlpha" type="matrix" values="0 0 0 0 0 0 0 0 0 0 0 0 0 0 0 0 0 0 127 0" result="hardAlpha"/>
			<feOffset dx="0" dy="4"/>
			<feGaussianBlur stdDeviation="1.33333"/>
			<feComposite in2="hardAlpha" operator="out" k2="-1" k3="1"/>
			<feColorMatrix type="matrix" values="0 0 0 0 0 0 0 0 0 0 0 0 0 0 0 0 0 0 0.25 0"/>
			<feBlend mode="normal" in2="BackgroundImageFix" result="effect_dropShadow_1"/>
			<feBlend mode="normal" in="SourceGraphic" in2="effect_dropShadow_1" result="shape"/>
		</filter>
	</defs>
	<g filter="url(#filter_32_21_dd)">
		<path id="Icon color" d="M4 4.99L4 3.74C4 3.39 4.28 3.11 4.62 3.11L24 3.11L24 0.61C24 0.36 24.16 0.14 24.39 0.04C24.62 -0.05 24.89 0 25.06 0.17L28.82 3.92C29.06 4.17 29.06 4.56 28.82 4.81L25.06 8.56C24.88 8.74 24.61 8.79 24.38 8.69C24.15 8.59 24 8.36 24 8.11L24 5.61L4.62 5.61C4.28 5.61 4 5.33 4 4.99Z" fill="#707070" fill-opacity="1.000000" fill-rule="nonzero"/>
		<path id="Icon color" d="M4 3.74C4 3.39 4.28 3.11 4.62 3.11L24 3.11L24 0.61C24 0.36 24.16 0.14 24.39 0.04C24.62 -0.05 24.89 0 25.06 0.17L28.82 3.92C29.06 4.17 29.06 4.56 28.82 4.81L25.06 8.56C24.88 8.74 24.61 8.79 24.38 8.69C24.15 8.59 24 8.36 24 8.11L24 5.61L4.62 5.61C4.28 5.61 4 5.33 4 4.99L4 3.74Z" stroke="#979797" stroke-opacity="0" stroke-width="0.000000"/>
	</g>
</svg>
