<svg width="18.000000" height="18.000000" viewBox="0 0 18 18" fill="none" xmlns="http://www.w3.org/2000/svg" xmlns:xlink="http://www.w3.org/1999/xlink">
	<desc>
			Created with Pixso.
	</desc>
	<defs>
		<clipPath id="clip1_874">
			<rect id="star (1) 5" rx="-0.500000" width="17.000000" height="17.000000" transform="translate(0.500000 0.500000)" fill="white" fill-opacity="0"/>
		</clipPath>
	</defs>
	<rect id="star (1) 5" rx="-0.500000" width="17.000000" height="17.000000" transform="translate(0.500000 0.500000)" fill="#FFFFFF" fill-opacity="0"/>
	<g clip-path="url(#clip1_874)">
		<path id="Vector" d="M17.95 6.9C17.83 6.53 17.51 6.28 17.13 6.24L11.93 5.77L9.88 0.96C9.72 0.61 9.38 0.38 9 0.38C8.61 0.38 8.27 0.61 8.12 0.96L6.06 5.77L0.86 6.24C0.48 6.28 0.16 6.54 0.04 6.9C-0.08 7.26 0.03 7.66 0.32 7.92L4.25 11.36L3.09 16.46C3.01 16.84 3.15 17.22 3.46 17.45C3.63 17.57 3.83 17.63 4.02 17.63C4.19 17.63 4.36 17.59 4.51 17.5L9 14.82L13.48 17.5C13.8 17.69 14.22 17.67 14.53 17.45C14.84 17.22 14.98 16.84 14.9 16.46L13.74 11.36L17.67 7.92C17.96 7.66 18.07 7.26 17.95 6.9Z" fill="#000000" fill-opacity="1.000000" fill-rule="nonzero"/>
	</g>
</svg>
