<svg width="21.000000" height="21.000000" viewBox="0 0 21 21" fill="none" xmlns="http://www.w3.org/2000/svg" xmlns:xlink="http://www.w3.org/1999/xlink">
	<desc>
			Created with Pixso.
	</desc>
	<defs>
		<clipPath id="clip88_358">
			<rect id="shopping-cart 2" rx="-0.500000" width="20.000000" height="20.000000" transform="translate(0.500000 0.500000)" fill="white" fill-opacity="0"/>
		</clipPath>
	</defs>
	<rect id="shopping-cart 2" rx="-0.500000" width="20.000000" height="20.000000" transform="translate(0.500000 0.500000)" fill="#FFFFFF" fill-opacity="0"/>
	<g clip-path="url(#clip88_358)">
		<mask id="mask_88_359" fill="white">
			<path id="Icon color" d="M10.5 4.78906C11.4849 3.69165 12.8646 3.04626 14.325 3C16.9069 3 19 5.12817 19 7.75354C19 11.1415 14.9625 14.8838 13.05 16.8285L11.112 18.799C10.9926 18.9207 10.8305 18.989 10.6615 18.9891L10.3385 18.9891C10.1695 18.989 10.0074 18.9207 9.888 18.799L7.95001 16.8285C6.03748 14.8838 2 11.1415 2 7.75354C2 5.12817 4.09308 3 6.67499 3C8.13538 3.04626 9.51514 3.69165 10.5 4.78906Z" clip-rule="evenodd" fill="" fill-opacity="1.000000" fill-rule="evenodd"/>
		</mask>
		<path id="Icon color" d="M10.5 4.78906C11.4849 3.69165 12.8646 3.04626 14.325 3C16.9069 3 19 5.12817 19 7.75354C19 11.1415 14.9625 14.8838 13.05 16.8285L11.112 18.799C10.9926 18.9207 10.8305 18.989 10.6615 18.9891L10.3385 18.9891C10.1695 18.989 10.0074 18.9207 9.888 18.799L7.95001 16.8285C6.03748 14.8838 2 11.1415 2 7.75354C2 5.12817 4.09308 3 6.67499 3C8.13538 3.04626 9.51514 3.69165 10.5 4.78906Z" clip-rule="evenodd" fill="#000000" fill-opacity="0.000000" fill-rule="evenodd" mask="url(#mask_88_359)"/>
		<path id="Icon color" d="M10.1279 4.45508Q10.9345 3.55627 12.0223 3.04749Q13.1111 2.53821 14.3091 2.50024L14.3171 2.5L14.325 2.5Q15.3791 2.5 16.3423 2.91418Q17.2714 3.31384 17.9872 4.04163Q18.7022 4.76868 19.0942 5.71118Q19.5 6.68652 19.5 7.75354Q19.5 9.95032 17.4484 12.7288Q16.7043 13.7365 15.6404 14.8883Q15.0287 15.5507 13.9179 16.6642Q13.563 17.0199 13.4065 17.1791L11.4685 19.1497Q11.309 19.3119 11.0998 19.4003Q10.8896 19.4889 10.6619 19.4891L10.3385 19.4891Q10.1104 19.4889 9.90021 19.4003Q9.69098 19.3119 9.53131 19.1494L7.59351 17.1791Q7.43683 17.0197 7.08209 16.6642Q5.97131 15.5507 5.35962 14.8883Q4.29565 13.7365 3.55157 12.7288Q1.5 9.95032 1.5 7.75354Q1.5 6.68652 1.90576 5.71118Q2.29779 4.76868 3.01282 4.04163Q3.72864 3.31384 4.65771 2.91418Q5.62091 2.5 6.67499 2.5L6.68292 2.5L6.69086 2.50024Q7.88892 2.53821 8.97766 3.04749Q10.0655 3.55627 10.8721 4.45508L10.5 4.78906L10.1279 4.45508ZM10.8721 5.12305L10.5 5.53772L10.1279 5.12305Q9.45728 4.37573 8.55402 3.95325Q7.65161 3.53125 6.65918 3.49976L6.67499 3L6.67499 3.5Q5.82684 3.5 5.0528 3.83289Q4.30402 4.15491 3.72577 4.74292Q3.14667 5.33167 2.82904 6.09534Q2.5 6.88623 2.5 7.75354Q2.5 9.62109 4.35602 12.1346Q5.0675 13.0983 6.09424 14.2098Q6.69287 14.858 7.7901 15.9579Q8.14722 16.3159 8.30646 16.4779L10.2447 18.4486Q10.2844 18.4891 10.3385 18.4891L10.6611 18.4891Q10.7156 18.4891 10.7555 18.4484L12.6935 16.4779Q12.8527 16.316 13.2099 15.9579Q14.3071 14.858 14.9058 14.2098Q15.9325 13.0983 16.644 12.1346Q18.5 9.62109 18.5 7.75354Q18.5 6.88623 18.171 6.09534Q17.8533 5.33167 17.2742 4.74292Q16.696 4.15491 15.9472 3.83289Q15.1732 3.5 14.325 3.5L14.325 3L14.3408 3.49976Q13.3484 3.53125 12.446 3.95325Q11.5427 4.37573 10.8721 5.12305Z" fill="#000000" fill-opacity="1.000000" fill-rule="nonzero"/>
	</g>
</svg>
