<svg width="33.333374" height="20.000000" viewBox="0 0 33.3334 20" fill="none" xmlns="http://www.w3.org/2000/svg" xmlns:xlink="http://www.w3.org/1999/xlink">
	<desc>
			Created with Pixso.
	</desc>
	<defs/>
	<path id="Icon color" d="M23.3334 0L10 0C4.47717 0 0 4.47717 0 10C0 15.5228 4.47717 20 10 20L23.3334 20C28.8562 20 33.3334 15.5228 33.3334 10C33.3334 4.47717 28.8562 0 23.3334 0ZM3.33337 10C3.33337 13.6819 6.31812 16.6666 10 16.6666C11.7682 16.6666 13.4639 15.9643 14.7141 14.7141C15.9644 13.4638 16.6667 11.7681 16.6667 10C16.6667 6.31805 13.6819 3.33331 10 3.33331C6.31812 3.33331 3.33337 6.31805 3.33337 10Z" clip-rule="evenodd" fill="#707070" fill-opacity="1.000000" fill-rule="evenodd"/>
</svg>
