<svg width="21.250000" height="16.106079" viewBox="0 0 21.25 16.1061" fill="none" xmlns="http://www.w3.org/2000/svg" xmlns:xlink="http://www.w3.org/1999/xlink">
	<desc>
			Created with Pixso.
	</desc>
	<defs/>
	<mask id="mask_1_889" fill="white">
		<path id="Icon color" d="M19.125 0L2.125 0C0.951172 0 0 0.901367 0 2.01324L0 14.0928C0 15.2047 0.951172 16.1061 2.125 16.1061L19.125 16.1061C20.2988 16.1061 21.25 15.2047 21.25 14.0928L21.25 2.01324C21.25 0.901367 20.2988 0 19.125 0ZM19.125 2.01404L19.125 4.93326L11.3154 10.1174C10.9004 10.3905 10.3496 10.3905 9.93457 10.1174L2.125 4.93326L2.125 2.01404L19.125 2.01404ZM2.125 7.04718L2.125 14.0936L19.125 14.0936L19.125 7.04718L12.3779 11.5166C11.3252 12.2139 9.9248 12.2139 8.87207 11.5166L2.125 7.04718Z" clip-rule="evenodd" fill="" fill-opacity="1.000000" fill-rule="evenodd"/>
	</mask>
	<path id="Icon color" d="M19.125 0L2.125 0C0.951172 0 0 0.901367 0 2.01324L0 14.0928C0 15.2047 0.951172 16.1061 2.125 16.1061L19.125 16.1061C20.2988 16.1061 21.25 15.2047 21.25 14.0928L21.25 2.01324C21.25 0.901367 20.2988 0 19.125 0ZM19.125 2.01404L19.125 4.93326L11.3154 10.1174C10.9004 10.3905 10.3496 10.3905 9.93457 10.1174L2.125 4.93326L2.125 2.01404L19.125 2.01404ZM2.125 7.04718L2.125 14.0936L19.125 14.0936L19.125 7.04718L12.3779 11.5166C11.3252 12.2139 9.9248 12.2139 8.87207 11.5166L2.125 7.04718Z" clip-rule="evenodd" fill="#707070" fill-opacity="1.000000" fill-rule="evenodd" mask="url(#mask_1_889)"/>
	<path id="Icon color" d="" fill="#979797" fill-opacity="0.000000" fill-rule="nonzero"/>
</svg>
