<svg width="19.750641" height="19.750610" viewBox="0 0 19.7506 19.7506" fill="none" xmlns="http://www.w3.org/2000/svg" xmlns:xlink="http://www.w3.org/1999/xlink">
	<desc>
			Created with Pixso.
	</desc>
	<defs/>
	<mask id="mask_88_345" fill="white">
		<path id="Icon color" d="M19.2401 17.7504L15.0186 13.5229C14.8819 13.3828 14.7297 13.2588 14.5648 13.1531L13.5095 12.424C15.6803 9.73413 15.7004 5.89722 13.558 3.18469C11.4156 0.472168 7.68243 -0.391968 4.5686 1.10388C1.4548 2.59961 -0.208618 6.05615 0.563141 9.42712C1.33493 12.798 4.33591 15.1837 7.78946 15.1716C9.46542 15.1721 11.0917 14.6019 12.4014 13.5547L13.1929 14.6116C13.2868 14.7477 13.3927 14.875 13.5095 14.9919L17.7309 19.2194C17.83 19.3193 17.9649 19.3756 18.1056 19.3756C18.2463 19.3756 18.3811 19.3193 18.4802 19.2194L19.219 18.4795C19.4193 18.2811 19.4286 17.9601 19.2401 17.7504ZM2.51285 7.77356C2.51285 10.6919 4.87534 13.0577 7.78964 13.0577C9.18912 13.0577 10.5313 12.501 11.5209 11.51C12.5105 10.519 13.0664 9.17505 13.0664 7.77356C13.0664 4.85522 10.7039 2.4895 7.78964 2.4895C4.87534 2.4895 2.51285 4.85522 2.51285 7.77356Z" clip-rule="evenodd" fill="" fill-opacity="1.000000" fill-rule="evenodd"/>
	</mask>
	<path id="Icon color" d="M19.2401 17.7504L15.0186 13.5229C14.8819 13.3828 14.7297 13.2588 14.5648 13.1531L13.5095 12.424C15.6803 9.73413 15.7004 5.89722 13.558 3.18469C11.4156 0.472168 7.68243 -0.391968 4.5686 1.10388C1.4548 2.59961 -0.208618 6.05615 0.563141 9.42712C1.33493 12.798 4.33591 15.1837 7.78946 15.1716C9.46542 15.1721 11.0917 14.6019 12.4014 13.5547L13.1929 14.6116C13.2868 14.7477 13.3927 14.875 13.5095 14.9919L17.7309 19.2194C17.83 19.3193 17.9649 19.3756 18.1056 19.3756C18.2463 19.3756 18.3811 19.3193 18.4802 19.2194L19.219 18.4795C19.4193 18.2811 19.4286 17.9601 19.2401 17.7504ZM2.51285 7.77356C2.51285 10.6919 4.87534 13.0577 7.78964 13.0577C9.18912 13.0577 10.5313 12.501 11.5209 11.51C12.5105 10.519 13.0664 9.17505 13.0664 7.77356C13.0664 4.85522 10.7039 2.4895 7.78964 2.4895C4.87534 2.4895 2.51285 4.85522 2.51285 7.77356Z" clip-rule="evenodd" fill="#000000" fill-opacity="1.000000" fill-rule="evenodd" mask="url(#mask_88_345)"/>
	<path id="Icon color" d="M18.9747 18.0153L14.7533 13.788Q14.5744 13.6046 14.3625 13.4689L14.357 13.4653L12.964 12.5028L13.2177 12.1884Q13.9803 11.2435 14.3803 10.1029Q14.77 8.9917 14.7762 7.81091Q14.7824 6.63 14.4044 5.51477Q14.0164 4.37 13.2638 3.41711Q12.5112 2.46436 11.4882 1.82251Q10.4917 1.19739 9.34305 0.931519Q8.19443 0.665649 7.02505 0.789429Q5.82468 0.916504 4.73099 1.44189Q3.63724 1.96729 2.78696 2.82532Q1.95856 3.66125 1.44669 4.72498Q0.934784 5.7887 0.797974 6.95837Q0.657562 8.15918 0.92868 9.34338Q1.19983 10.5276 1.84857 11.5471Q2.48056 12.5403 3.40399 13.2744Q4.32739 14.0084 5.43658 14.3995Q6.57516 14.8009 7.78815 14.7966Q8.98264 14.797 10.1087 14.4022Q11.2348 14.0074 12.1672 13.2618L12.4695 13.0201L13.4974 14.3926L13.5016 14.3986Q13.6234 14.5752 13.775 14.7272L17.9963 18.9543Q18.0421 19.0006 18.1056 19.0006Q18.169 19.0006 18.2138 18.9554L18.9536 18.2146Q18.9987 18.1699 19.0005 18.1083Q19.0023 18.0468 18.9612 18.001L19.2401 17.7504L18.9747 18.0153ZM19.5054 17.4854L19.5124 17.4923L19.519 17.4996Q19.7607 17.7686 19.7502 18.13Q19.7397 18.4916 19.4843 18.7445L18.7467 19.4832Q18.6196 19.6116 18.4529 19.681Q18.2862 19.7506 18.1056 19.7506Q17.925 19.7506 17.7583 19.681Q17.5916 19.6116 17.4656 19.4843L13.244 15.2568Q13.0446 15.057 12.8842 14.8245L13.1929 14.6116L12.8927 14.8363L12.1012 13.7795L12.4014 13.5547L12.6356 13.8475Q11.6035 14.6729 10.3568 15.11Q9.1102 15.547 7.79077 15.5466Q6.44809 15.5513 5.18726 15.1068Q3.95926 14.674 2.93729 13.8616Q1.91534 13.0492 1.21582 11.9498Q0.497589 10.8212 0.197601 9.51074Q-0.102386 8.20056 0.0530701 6.87134Q0.204468 5.57666 0.770874 4.39966Q1.33731 3.22266 2.25421 2.29736Q3.19571 1.34729 4.40625 0.765869Q5.61679 0.184326 6.94611 0.0435791Q8.24078 -0.0935059 9.51218 0.200806Q10.7836 0.495117 11.8868 1.18726Q13.0195 1.89783 13.8523 2.95227Q14.6851 4.00671 15.1147 5.27405Q15.5331 6.5083 15.5262 7.81482Q15.5193 9.12122 15.088 10.3511Q14.6451 11.6139 13.8013 12.6594L13.5095 12.424L13.7227 12.1154L14.778 12.8446L14.5648 13.1531L14.7672 12.8374Q15.0513 13.0195 15.284 13.2581L19.5054 17.4854ZM2.88785 7.77356Q2.88785 8.77271 3.27298 9.68457Q3.64505 10.5654 4.32373 11.2451Q5.00235 11.9247 5.88193 12.2971Q6.79221 12.6827 7.78964 12.6827Q8.76456 12.6827 9.66528 12.3091Q10.5661 11.9354 11.2555 11.2451Q11.945 10.5546 12.3182 9.65247Q12.6914 8.75012 12.6914 7.77356Q12.6914 6.77454 12.3063 5.86267Q11.9342 4.98169 11.2555 4.30212Q10.5769 3.62256 9.69736 3.25Q8.78705 2.8645 7.78964 2.8645Q6.79221 2.8645 5.88193 3.25Q5.00235 3.62256 4.32373 4.30212Q3.64505 4.98169 3.27298 5.86267Q2.88785 6.77454 2.88785 7.77356ZM2.13785 7.77356Q2.13785 6.62256 2.58206 5.5708Q3.01105 4.55518 3.79303 3.77222Q4.57507 2.98901 5.58942 2.55945Q6.63992 2.1145 7.78964 2.1145Q8.93933 2.1145 9.98984 2.55945Q11.0042 2.98901 11.7862 3.77222Q12.5682 4.5553 12.9972 5.5708Q13.4414 6.62256 13.4414 7.77356Q13.4414 8.89917 13.0113 9.93909Q12.5811 10.979 11.7862 11.775Q10.9913 12.571 9.95264 13.0018Q8.91394 13.4327 7.78964 13.4327Q6.63992 13.4327 5.58942 12.9878Q4.57507 12.5581 3.79303 11.775Q3.01105 10.9919 2.58206 9.97632Q2.13785 8.92456 2.13785 7.77356Z" fill="#FFFFFF" fill-opacity="1.000000" fill-rule="nonzero"/>
</svg>
