<svg width="21.000122" height="21.000000" viewBox="0 0 21.0001 21" fill="none" xmlns="http://www.w3.org/2000/svg" xmlns:xlink="http://www.w3.org/1999/xlink">
	<desc>
			Created with Pixso.
	</desc>
	<defs/>
	<mask id="mask_88_348" fill="white">
		<path id="Icon color" d="M15.5016 5.5C15.5016 8.26147 13.2623 10.5 10.5001 10.5C7.73785 10.5 5.4986 8.26147 5.4986 5.5C5.4986 2.73853 7.73785 0.5 10.5001 0.5C13.2623 0.5 15.5016 2.73853 15.5016 5.5ZM13.5011 5.5C13.5011 3.84314 12.1575 2.5 10.5002 2.5C8.84283 2.5 7.49927 3.84314 7.49927 5.5C7.49927 7.15686 8.84283 8.5 10.5002 8.5C12.1575 8.5 13.5011 7.15686 13.5011 5.5ZM20.3931 19.05L18.5025 15.26C17.6545 13.5682 15.9239 12.5 14.0311 12.5L6.96899 12.5C5.07623 12.5 3.34558 13.5682 2.49762 15.26L0.607056 19.05C0.45105 19.3595 0.466492 19.7277 0.647827 20.0231C0.829224 20.3185 1.15063 20.4989 1.49731 20.5L19.5028 20.5C19.8495 20.4989 20.1709 20.3185 20.3523 20.0231C20.5336 19.7277 20.5491 19.3595 20.3931 19.05ZM4.28827 16.16L3.11786 18.5L17.8823 18.5L16.712 16.16C16.2047 15.144 15.1671 14.5016 14.0312 14.5L6.96906 14.5C5.83319 14.5016 4.79559 15.144 4.28827 16.16Z" clip-rule="evenodd" fill="" fill-opacity="1.000000" fill-rule="evenodd"/>
	</mask>
	<path id="Icon color" d="M15.5016 5.5C15.5016 8.26147 13.2623 10.5 10.5001 10.5C7.73785 10.5 5.4986 8.26147 5.4986 5.5C5.4986 2.73853 7.73785 0.5 10.5001 0.5C13.2623 0.5 15.5016 2.73853 15.5016 5.5ZM13.5011 5.5C13.5011 3.84314 12.1575 2.5 10.5002 2.5C8.84283 2.5 7.49927 3.84314 7.49927 5.5C7.49927 7.15686 8.84283 8.5 10.5002 8.5C12.1575 8.5 13.5011 7.15686 13.5011 5.5ZM20.3931 19.05L18.5025 15.26C17.6545 13.5682 15.9239 12.5 14.0311 12.5L6.96899 12.5C5.07623 12.5 3.34558 13.5682 2.49762 15.26L0.607056 19.05C0.45105 19.3595 0.466492 19.7277 0.647827 20.0231C0.829224 20.3185 1.15063 20.4989 1.49731 20.5L19.5028 20.5C19.8495 20.4989 20.1709 20.3185 20.3523 20.0231C20.5336 19.7277 20.5491 19.3595 20.3931 19.05ZM4.28827 16.16L3.11786 18.5L17.8823 18.5L16.712 16.16C16.2047 15.144 15.1671 14.5016 14.0312 14.5L6.96906 14.5C5.83319 14.5016 4.79559 15.144 4.28827 16.16Z" clip-rule="evenodd" fill="#000000" fill-opacity="1.000000" fill-rule="evenodd" mask="url(#mask_88_348)"/>
	<path id="Icon color" d="M16.0016 5.5Q16.0016 6.61865 15.569 7.64099Q15.1514 8.62817 14.3902 9.38916Q13.629 10.1501 12.6416 10.5676Q11.619 11 10.5001 11Q9.38116 11 8.35852 10.5676Q7.37115 10.1501 6.60999 9.38916Q5.84875 8.62817 5.43115 7.64099Q4.9986 6.61865 4.9986 5.5Q4.9986 4.38135 5.43115 3.35901Q5.84875 2.37183 6.60999 1.61084Q7.37115 0.849854 8.35852 0.432373Q9.38116 0 10.5001 0Q11.619 0 12.6416 0.432373Q13.629 0.849854 14.3902 1.61084Q15.1514 2.37183 15.569 3.35901Q16.0016 4.38135 16.0016 5.5ZM15.0016 5.5Q15.0016 4.58423 14.6481 3.74866Q14.3065 2.94116 13.6832 2.31812Q13.0599 1.69495 12.2522 1.35339Q11.4163 1 10.5001 1Q9.58392 1 8.74799 1.35339Q7.94025 1.69495 7.31696 2.31812Q6.69373 2.94116 6.35211 3.74866Q5.9986 4.58423 5.9986 5.5Q5.9986 6.41577 6.35211 7.25134Q6.69373 8.05884 7.31696 8.68188Q7.94025 9.30505 8.74799 9.64661Q9.58392 10 10.5001 10Q11.4163 10 12.2522 9.64661Q13.0599 9.30505 13.6832 8.68188Q14.3065 8.05884 14.6481 7.25134Q15.0016 6.41577 15.0016 5.5ZM13.0011 5.5Q13.0011 4.99109 12.8047 4.5271Q12.615 4.07849 12.2686 3.7323Q11.9222 3.38599 11.4735 3.19629Q11.0093 3 10.5002 3Q9.99097 3 9.52679 3.19629Q9.07806 3.38599 8.73169 3.7323Q8.38531 4.07849 8.19556 4.5271Q7.99927 4.99109 7.99927 5.5Q7.99927 6.00891 8.19556 6.4729Q8.38531 6.92151 8.73169 7.2677Q9.07806 7.61401 9.52679 7.80371Q9.99097 8 10.5002 8Q11.0093 8 11.4735 7.80371Q11.9222 7.61401 12.2686 7.2677Q12.615 6.92139 12.8047 6.4729Q13.0011 6.00891 13.0011 5.5ZM14.0011 5.5Q14.0011 6.21179 13.7257 6.86255Q13.46 7.49072 12.9756 7.97498Q12.4913 8.45911 11.863 8.72473Q11.212 9 10.5002 9Q9.78827 9 9.13733 8.72473Q8.50897 8.45911 8.02472 7.97498Q7.54041 7.49072 7.2746 6.86255Q6.99927 6.21179 6.99927 5.5Q6.99927 4.78821 7.2746 4.13745Q7.54041 3.50928 8.02472 3.02502Q8.50897 2.54089 9.13733 2.27527Q9.78827 2 10.5002 2Q11.212 2 11.863 2.27527Q12.4913 2.54089 12.9756 3.02502Q13.46 3.50928 13.7257 4.13745Q14.0011 4.78821 14.0011 5.5ZM19.9456 19.2732L18.0551 15.4832Q17.7719 14.9182 17.3444 14.4536Q16.9244 13.9973 16.396 13.6711Q15.8676 13.345 15.2713 13.1741Q14.6642 13 14.0311 13L6.96899 13Q6.33594 13 5.72882 13.1741Q5.13257 13.345 4.60413 13.6711Q4.07568 13.9973 3.65576 14.4536Q3.22821 14.9182 2.94464 15.484L1.0545 19.2732Q0.995056 19.3911 1.00049 19.5209Q1.00592 19.6508 1.07391 19.7615Q1.14197 19.8723 1.25537 19.9359Q1.36877 19.9996 1.49884 20L19.5028 20Q19.6313 19.9996 19.7448 19.9359Q19.8582 19.8723 19.9262 19.7615Q19.9942 19.6508 19.9996 19.5209Q20.0051 19.3911 19.9466 19.275L19.9456 19.2732ZM20.8395 18.825Q21.0151 19.1732 20.9987 19.5627Q20.9824 19.9524 20.7784 20.2847Q20.5743 20.6171 20.2343 20.8079Q19.8942 20.9988 19.5028 21L1.49585 21Q1.10583 20.9988 0.765808 20.808Q0.425781 20.6171 0.221741 20.2847Q0.0177002 19.9524 0.00140381 19.5627Q-0.0149536 19.1732 0.159668 18.8268L2.05066 15.0359Q2.39722 14.3445 2.91992 13.7765Q3.43317 13.2188 4.07886 12.8202Q4.72455 12.4216 5.45331 12.2128Q6.19543 12 6.96899 12L14.0311 12Q14.8047 12 15.5468 12.2128Q16.2756 12.4216 16.9213 12.8202Q17.567 13.2188 18.0802 13.7765Q18.6029 14.3445 18.9499 15.0367L20.8405 18.8268L20.8395 18.825ZM4.73541 16.3837L3.56506 18.7236L3.11786 18.5L3.11786 18L17.8823 18L17.8823 18.5L17.4352 18.7236L16.2648 16.3837Q15.9476 15.7484 15.3441 15.3746Q14.7405 15.001 14.0305 15L6.96906 15Q6.25977 15.001 5.65619 15.3746Q5.05267 15.7484 4.73553 16.3834L4.73541 16.3837ZM3.84094 15.9366Q4.06085 15.4962 4.39301 15.1342Q4.71918 14.7787 5.1297 14.5245Q5.54028 14.2703 6.00391 14.1367Q6.47607 14.0006 6.96906 14L14.0319 14Q14.5242 14.0006 14.9963 14.1367Q15.46 14.2703 15.8705 14.5245Q16.2811 14.7787 16.6072 15.1342Q16.9394 15.4962 17.1592 15.9363L18.6915 19L2.30878 19L3.84106 15.9363L3.84094 15.9366Z" fill="#FFFFFF" fill-opacity="1.000000" fill-rule="nonzero"/>
</svg>
